<svg t="1635820323745" class="icon" viewBox="0 0 1070 1024" version="1.1" xmlns="http://www.w3.org/2000/svg" p-id="871" width="200" height="200"><path d="M1021.713308 633.948781a48.653015 48.653015 0 0 1-48.653014-48.653014l-0.389224-487.673493-728.578895 0.413551a48.653015 48.653015 0 0 1 0-97.30603l678.709554-0.389224v0.413551h51.693829a97.306029 97.306029 0 0 1 95.359908 77.844823L1070.366323 585.295767a48.653015 48.653015 0 0 1-48.653015 48.653014zM924.407279 229.544923l0.413551 307.584359c0 1.216325-0.267592 2.432651-0.364898 3.600323l0.291918 200.912624a96.965458 96.965458 0 0 1-96.138357 86.213142h-51.693828l-270.024232 0.316245-182.448805 181.086521a48.653015 48.653015 0 1 1-68.795362-68.795363l189.162921-187.703331a48.653015 48.653015 0 0 1 40.576614-21.893856h1.946121l340.157552-0.316245v-76.506866 10.217133-17.75835L827.10125 486.5788c0-1.289305 0.267592-2.432651 0.364897-3.721956l-0.218938-164.155271c-1.021713-64.07602-9.000808-73.247114-64.659857-74.487766l64.173326 0.437877 0.486531 70.668504L827.10125 244.019195h-71.665891 7.10334-15.495985l-587.314867 0.316245c-51.085665 1.727182-60.645983 10.922602-62.397491 57.434884l0.291918 382.388368c2.432651 38.533188 14.085048 45.101345 65.851855 46.220364l-65.827529-0.437877v0.997387l194.903977-0.340571a48.653015 48.653015 0 0 1 0 97.306029l-143.526393 0.243265v-0.291918H97.306029a97.111417 97.111417 0 0 1-96.892478-93.073217L0 243.484012a97.062764 97.062764 0 0 1 92.927258-96.332969l736.120112-0.437877A96.989785 96.989785 0 0 1 924.407279 229.544923z m-827.10125 14.912149v33.424621l0.218939-33.230009 31.259562-0.218938H97.306029z m669.708747 485.873331c51.085665-1.240652 59.040433-9.730603 60.18378-65.997814l-0.462204 65.68157z m0 0c-10.460398 0.243265-22.502019 0.243265-36.927638 0.243265z m-603.51632 0l32.281275 0.218939c-12.211907 0-22.84259 0-32.232622-0.194612z m741.958474-632.099966l65.803202 0.437877 0.364898 54.613009c-1.483917-46.512282-10.72799-53.90754-66.192427-55.02656z m0 0l-32.402908-0.170286c12.284886 0 22.939896 0 32.378581 0.194612z m66.435691 97.135743l-0.291918-42.036204c0.364898 11.482111 0.291918 25.202262 0.291918 42.036204z" p-id="872"></path></svg>