<svg t="1634986769933" class="icon" viewBox="0 0 1024 1024" version="1.1" xmlns="http://www.w3.org/2000/svg" p-id="1079" width="200" height="200"><path d="M430.378633 292.661194a46.545031 46.545031 0 0 1 65.814674 0l182.503068 184.760502c0.954173 0.814538 2.117799 1.117081 3.002155 2.001437a48.034472 48.034472 0 0 1 0 66.861937c-0.884356 0.884356-2.047981 1.186898-2.978882 2.001436l-180.967082 183.224517a46.545031 46.545031 0 0 1-65.837947-65.814675l150.945537-152.83061-152.481523-154.38987a46.545031 46.545031 0 0 1 0-65.814674zM511.995345 1024a508.178653 508.178653 0 0 1-293.233697-93.299515 46.405396 46.405396 0 0 1-34.210598-44.683231l-0.418906-4.305415a46.545031 46.545031 0 0 1 80.592722-31.557531 420.534359 420.534359 0 1 0-132.653339-160.161453l-7.540295 7.540295a46.545031 46.545031 0 0 1 29.020827 43.077426l0.442177 4.328688a46.428669 46.428669 0 0 1-91.088626 12.776611A511.995345 511.995345 0 1 1 511.995345 1024z" p-id="1080"></path></svg>