<svg t="1634906575492" class="icon" viewBox="0 0 1066 1024" version="1.1" xmlns="http://www.w3.org/2000/svg" p-id="869" width="200" height="200"><path d="M835.314833 662.943505l10.089126 80.597307c0.138841 0.879327 0.231402 1.735515 0.323963 2.614842l2.799964 22.376571-5.461087-2.452861a44.244057 44.244057 0 0 1-83.304709-0.740487l-0.971888-4.026394a43.966374 43.966374 0 0 1 1.318991-32.396276l-6.803218-3.031366-9.256079-100.706137 176.767965-185.885203-257.735514-53.222453-128.960319-223.187201v3.54045l-126.137214 221.243424-252.390129 54.911688 171.237458 181.627407-35.867305 265.46434 243.11091-114.520835 233.368887 102.117689v-0.948748l100.335895 45.030824 8.631293 69.119768a70.4619 70.4619 0 0 1-41.212691 32.85908l-301.308506-141.317183L231.170569 1024a70.577601 70.577601 0 0 1-40.472205-28.092199l41.652355-332.987436L0.069421 414.903733a70.4619 70.4619 0 0 1 19.646027-43.52671l327.827172-62.987617 168.692036-305.913405a70.785863 70.785863 0 0 1 35.589623 0.393383l168.460635 305.450602 326.693302 62.756214a70.716442 70.716442 0 0 1 19.900569 44.730001z" p-id="870"></path></svg>